<svg id="Layer_2-2" xmlns="http://www.w3.org/2000/svg" width="545.274" height="220.85" viewBox="0 0 545.274 220.85">
  <g id="Group_71" data-name="Group 71" transform="translate(0 3.732)">
    <g id="Group_69" data-name="Group 69">
      <path id="Path_155" data-name="Path 155" d="M84.692,107.86l-.169,25.253h-.217L60.791,156.629v-.507l-.471-25.3,22.116-21.658v-1.3Z" transform="translate(12.145 10.442)" fill="#14191f"/>
      <path id="Path_156" data-name="Path 156" d="M73.2,152.8l.917,50.048L.26,202.014V126.4l72.079.977.386-.386.471,25.3Z" transform="translate(-0.26 14.272)" fill="#4bc37f"/>
      <path id="Path_157" data-name="Path 157" d="M457.18,9.94l.048,75.3-22.84,22.683H432.12V34.7l.507.024Z" transform="translate(88.046 -9.783)" fill="#14191f"/>
      <path id="Path_158" data-name="Path 158" d="M469.848,9.94,445.294,34.723l-.507-.024-74-1.544L393.8,9.976Z" transform="translate(75.378 -9.783)" fill="#14191f"/>
      <path id="Path_159" data-name="Path 159" d="M456.656,107.88v51.5l-12.391,11.595-10.883,10.171h-.941V132.276Z" transform="translate(88.112 10.446)" fill="#14191f"/>
      <path id="Path_160" data-name="Path 160" d="M469.389,108.076l-24.215,24.4-74.384-1.194,24.167-24.348Z" transform="translate(75.378 10.25)" fill="#14191f"/>
      <path id="Path_161" data-name="Path 161" d="M448.558,160.17l12.391,12.584-21.235,21.959h-1.8l-10.026-9.52-16.24-14.853h26.025Z" transform="translate(83.818 21.247)" fill="#14191f"/>
      <path id="Path_162" data-name="Path 162" d="M446.356,201.542l-28.233-.024-9.785-9.5-.591-.579-11.607-11.257v21.356H371.972L370.79,127.11l74.384,1.195V177.17H420.089l16.24,14.853Z" transform="translate(75.378 14.418)" fill="#4bc37f"/>
      <path id="Path_163" data-name="Path 163" d="M444.788,30.749v73.2h-74V29.18l74,1.556v.024ZM421.574,79.264V54.723l-25.4-.471V79.191l25.4.06Z" transform="translate(75.378 -5.809)" fill="#4bc37f"/>
      <path id="Path_164" data-name="Path 164" d="M417.226,50.36V74.889l-25.386-.06Z" transform="translate(79.726 -1.434)" fill="#14191f"/>
      <path id="Path_165" data-name="Path 165" d="M417.226,50.441,391.84,74.909V49.97Z" transform="translate(79.726 -1.515)" fill="#14191f"/>
      <path id="Path_166" data-name="Path 166" d="M391.8,171.1l11.607,11.257-.036.048-10.835,10.8-.736-.748Z" transform="translate(79.718 23.504)" fill="#14191f"/>
      <path id="Path_167" data-name="Path 167" d="M363.462,10.77V62.253l-12.4,11.583L340.2,84.008h-.965V35.166l-.145-.76Z" transform="translate(69.024 -9.612)" fill="#14191f"/>
      <path id="Path_168" data-name="Path 168" d="M355.326,63.04l12.4,12.584L346.482,97.608h-1.774l-10.05-9.52L318.43,73.211h26.037Z" transform="translate(64.767 1.185)" fill="#14191f"/>
      <path id="Path_169" data-name="Path 169" d="M376.167,10.968,351.795,34.6l-74.215-.446L301.723,9.81Z" transform="translate(56.352 -9.81)" fill="#14191f"/>
      <path id="Path_365" data-name="Path 365" d="M376.167,10.968,351.795,34.6l-74.215-.446L301.723,9.81Z" transform="translate(-54.549 -9.653)" fill="#14191f"/>
      <path id="Path_170" data-name="Path 170" d="M360.6,108.05l-.265,76.061-20.873,21.32H337.14l.048-74.275Z" transform="translate(68.627 10.481)" fill="#14191f"/>
      <path id="Path_171" data-name="Path 171" d="M373.3,108.085l-23.407,23.105-74.263-.736v-.446l22.14-22.128Z" transform="translate(55.955 10.446)" fill="#14191f"/>
      <path id="Path_172" data-name="Path 172" d="M353.146,104.434l-28.257-.036-9.761-9.483-.616-.591L302.905,83.066v21.368H278.762L277.58,29.99l74.215.446.145.76V80.038H326.867L343.1,94.914Z" transform="translate(56.384 -5.642)" fill="#4bc37f"/>
      <path id="Path_173" data-name="Path 173" d="M325.292,177.627l-25.048.121v23.9l-23.962.688-.651-75.747,74.263.736-.048,74.275H325.316V180.173Z" transform="translate(55.988 14.311)" fill="#4bc37f"/>
      <path id="Path_174" data-name="Path 174" d="M321.078,168.89l.024,2.546L297.3,192.864l-1.267.048v-23.9Z" transform="translate(60.219 23.048)" fill="#14191f"/>
      <path id="Path_175" data-name="Path 175" d="M298.57,73.98l11.607,11.257-.036.036L299.33,96.108l-.76-.76Z" transform="translate(60.754 3.444)" fill="#14191f"/>
      <path id="Path_176" data-name="Path 176" d="M271.755,10.539l1.042,48.91L248.046,84.658h-.8V34.128Z" transform="translate(50.244 -9.466)" fill="#14191f"/>
      <path id="Path_178" data-name="Path 178" d="M268.391,148.58v27.159L246.311,197.8H244.2V173.061Z" transform="translate(49.621 18.853)" fill="#14191f"/>
      <path id="Path_179" data-name="Path 179" d="M276.4,148.58l-24.191,24.481H205.44l22.574-24.481Z" transform="translate(41.654 18.853)" fill="#14191f"/>
      <path id="Path_180" data-name="Path 180" d="M260.009,30.31V80.768l-22.659-.133-25.675-.145v24.65H185.48V30.31Z" transform="translate(37.573 -5.576)" fill="#4bc37f"/>
      <path id="Path_181" data-name="Path 181" d="M207.6,177.488l2.461.024h46.766v24.734H183.08V127.03l24.855.217Z" transform="translate(37.084 14.402)" fill="#4bc37f"/>
      <path id="Path_182" data-name="Path 182" d="M232.865,72.045,208.9,96.55H207.19V71.9Z" transform="translate(42.052 3.015)" fill="#14191f"/>
      <path id="Path_183" data-name="Path 183" d="M228.581,108.06l-.145,48.889L205.861,181.43l-2.461-.024.338-50.241Z" transform="translate(41.278 10.484)" fill="#14191f"/>
      <path id="Path_184" data-name="Path 184" d="M232.778,108.06l-24.843,23.105-24.855-.217L205.86,108.2Z" transform="translate(37.104 10.484)" fill="#14191f"/>
      <path id="Path_185" data-name="Path 185" d="M177.147,108.06v76.435l-21.838,21.67-2.268-75Z" transform="translate(30.981 10.484)" fill="#14191f"/>
      <path id="Path_186" data-name="Path 186" d="M189.815,108.06l-24.107,23.105-74,.229,23.009-23.166Z" transform="translate(18.409 10.484)" fill="#14191f"/>
      <path id="Path_187" data-name="Path 187" d="M165.708,127.21l2.268,75H91.71v-74.77l74-.229Zm-23.214,50.313V152.982l-25.41-.471v24.939l25.41.06Z" transform="translate(18.419 14.439)" fill="#4bc37f"/>
      <path id="Path_188" data-name="Path 188" d="M138.15,148.58v24.541l-25.41-.06Z" transform="translate(22.74 18.853)" fill="#14191f"/>
      <path id="Path_189" data-name="Path 189" d="M138.15,148.661l-25.41,24.481V148.19Z" transform="translate(22.74 18.772)" fill="#14191f"/>
      <path id="Path_190" data-name="Path 190" d="M84.443,128.79l-.3,51.049L61.627,202.353l-.917-50.048L84.226,128.79Z" transform="translate(12.226 14.765)" fill="#14191f"/>
      <path id="Path_191" data-name="Path 191" d="M72.725,130.821l-.386.386L.26,130.229,21.712,107.86H94.841v1.3Z" transform="translate(-0.26 10.442)" fill="#14191f"/>
    </g>
    <g id="Group_70" data-name="Group 70" transform="translate(0 49.879)">
      <line id="Line_33" data-name="Line 33" x2="30.526" transform="translate(356.326)" fill="none" stroke="#2a1723" stroke-miterlimit="10" stroke-width="3"/>
      <path id="Path_192" data-name="Path 192" d="M70.116,147.86h-.483l-52.123.724" transform="translate(3.303 -31.175)" fill="none" stroke="#2a1723" stroke-miterlimit="10" stroke-width="3"/>
      <line id="Line_34" data-name="Line 34" x2="51.315" transform="translate(0 141.649)" fill="none" stroke="#2a1723" stroke-miterlimit="10" stroke-width="3"/>
      <line id="Line_35" data-name="Line 35" x2="30.514" transform="translate(353.171 117.228)" fill="none" stroke="#2a1723" stroke-miterlimit="10" stroke-width="3"/>
      <line id="Line_36" data-name="Line 36" x2="30.502" transform="translate(468.598 117.168)" fill="none" stroke="#2a1723" stroke-miterlimit="10" stroke-width="3"/>
      <line id="Line_37" data-name="Line 37" x2="30.526" transform="translate(248.991)" fill="none" stroke="#2a1723" stroke-miterlimit="10" stroke-width="3"/>
    </g>
  </g>
  <g id="Group_132" data-name="Group 132" transform="translate(34.575 0)">
    <path id="Path_348" data-name="Path 348" d="M0,97.657H117.347L55.911,42.945Z" transform="translate(0 6.279)" fill="#4bc37f"/>
    <path id="Path_349" data-name="Path 349" d="M138.77,36.572,127.7,46.782,115.129,35.114l11.24-10.177Z" transform="translate(16.834 3.646)" fill="#14191f"/>
    <path id="Path_350" data-name="Path 350" d="M74.616,45.687l-12.2,10.769L48.779,44.315,61.173,33.578Z" transform="translate(7.132 4.909)" fill="#14191f"/>
    <path id="Path_351" data-name="Path 351" d="M87.539,34.223,75.584,44.772l-13.4-12.1L74.327,22.156Z" transform="translate(9.093 3.239)" fill="#14191f"/>
    <path id="Path_352" data-name="Path 352" d="M100.2,22.99,88.488,33.327,75.32,21.269l11.894-10.3Z" transform="translate(11.013 1.603)" fill="#14191f"/>
    <path id="Path_353" data-name="Path 353" d="M99.842,0,88.188,10.1l12.944,12.016,11.481-10.131L99.845,0Z" transform="translate(12.895 0)" fill="#14191f"/>
    <path id="Path_354" data-name="Path 354" d="M88.477,58.2,76.5,69,63.071,57.047,75.236,46.272Z" transform="translate(9.222 6.765)" fill="#14191f"/>
    <path id="Path_355" data-name="Path 355" d="M101.164,46.693,89.427,57.282l-13.2-11.92L88.149,34.806Z" transform="translate(11.146 5.089)" fill="#14191f"/>
    <path id="Path_356" data-name="Path 356" d="M113.6,35.418,102.1,45.795,89.123,33.915,100.8,23.571Z" transform="translate(13.031 3.446)" fill="#14191f"/>
    <path id="Path_357" data-name="Path 357" d="M125.787,24.366,114.511,34.538,101.757,22.7,113.2,12.56Z" transform="translate(14.879 1.836)" fill="#14191f"/>
    <path id="Path_358" data-name="Path 358" d="M102.132,70.524,90.372,81.366,77.146,69.587,89.088,58.774Z" transform="translate(11.28 8.593)" fill="#14191f"/>
    <path id="Path_359" data-name="Path 359" d="M114.589,58.98,103.065,69.6l-13-11.742,11.7-10.594Z" transform="translate(13.169 6.911)" fill="#14191f"/>
    <path id="Path_360" data-name="Path 360" d="M126.8,47.665,115.5,58.078,102.722,46.373,114.19,35.991Z" transform="translate(15.02 5.262)" fill="#14191f"/>
    <path id="Path_361" data-name="Path 361" d="M91.011,81.939l13.029,11.6,11.546-10.875L102.734,71.091Z" transform="translate(13.307 10.394)" fill="#14191f"/>
    <path id="Path_362" data-name="Path 362" d="M127.818,71.087,116.5,81.745,103.694,70.177l11.489-10.631Z" transform="translate(15.162 8.706)" fill="#14191f"/>
    <path id="Path_363" data-name="Path 363" d="M139.81,59.735,128.717,70.184,116.122,58.649l11.26-10.42Z" transform="translate(16.979 7.051)" fill="#14191f"/>
    <path id="Path_364" data-name="Path 364" d="M128.3,47.35l12.386,11.5L151.568,48.6,139.345,37.135Z" transform="translate(18.76 5.429)" fill="#14191f"/>
  </g>
</svg>
